<?xml version="1.0" encoding="utf-8"?>
<!-- Generator: Adobe Illustrator 14.0.0, SVG Export Plug-In . SVG Version: 6.00 Build 43363)  -->
<!DOCTYPE svg PUBLIC "-//W3C//DTD SVG 1.1//EN" "http://www.w3.org/Graphics/SVG/1.1/DTD/svg11.dtd">
<svg version="1.1"
	 id="svg3733" inkscape:version="0.44" sodipodi:docbase="C:\Documents and Settings\Dimitris\My Documents\wiki\images" sodipodi:docname="cyprus_blank_1.svg" sodipodi:version="0.32" xmlns:svg="http://www.w3.org/2000/svg" xmlns:sodipodi="http://sodipodi.sourceforge.net/DTD/sodipodi-0.dtd" xmlns:cc="http://web.resource.org/cc/" xmlns:dc="http://purl.org/dc/elements/1.1/" xmlns:inkscape="http://www.inkscape.org/namespaces/inkscape" xmlns:rdf="http://www.w3.org/1999/02/22-rdf-syntax-ns#"
	 xmlns="http://www.w3.org/2000/svg" xmlns:xlink="http://www.w3.org/1999/xlink" x="0px" y="0px" width="1140px" height="740px"
	 viewBox="0 0 1140 740" enable-background="new 0 0 1140 740" xml:space="preserve">
<sodipodi:namedview  id="base" inkscape:current-layer="svg3733" inkscape:window-y="0" inkscape:window-x="0" inkscape:window-width="853" inkscape:pageshadow="2" inkscape:window-height="580" inkscape:pageopacity="0.0" borderopacity="1.0" pagecolor="#ffffff" inkscape:cy="627.73957" inkscape:zoom="1.4409691" gridtolerance="10.0" bordercolor="#666666" objecttolerance="10.0" guidetolerance="10.0" inkscape:cx="939.66542">
	</sodipodi:namedview>
<g id="layer1" transform="translate(194.286, -172.362)">
	<path id="path5790" fill="#DE821E" d="M205.5,855.18c-2.298-1.162-5.257-3.127-6.574-4.365c-1.318-1.238-2.739-1.91-3.156-1.492
		c-0.418,0.417-2.859,0.82-5.426,0.896c-2.567,0.074-6.352,0.59-8.41,1.143c-2.059,0.554-3.494,0.604-3.19,0.112
		c1.043-1.688-2.299-0.892-4.924,1.174c-2.927,2.303-8.112,2.864-9.903,1.073c-0.89-0.892-0.831-1.938,0.245-4.403
		c2.198-5.038,1.47-14.029-1.584-19.558c-1.422-2.573-2.993-5.106-3.492-5.63c-0.5-0.521-0.915-2.899-0.924-4.026
		c-0.462,0.979-1.94-3.927-4.429-6.336c-1.956-1.779-3.556-3.63-3.556-4.112c0-0.483-2.726-2.903-6.057-5.379
		c-5.66-4.206-6.396-4.476-11.25-4.116c-5.186,0.383-11.97,1.098-16.693,1.759c-1.375,0.192-4.664,0.42-7.309,0.506
		c-2.646,0.087-4.601,0.493-4.346,0.906c0.255,0.412-0.506,0.825-1.691,0.916c-1.185,0.092-4.18,0.684-6.654,1.313
		c-2.476,0.631-7.562,1.578-11.303,2.105c-3.741,0.529-8.691,1.619-11,2.424c-6.181,2.153-8.339,1.868-16.043-2.118
		c-5.54-2.867-6.21-4.791-11.514-3.619c-2.372,0.523-3.872,0.655-5.069-0.435c-4.049-3.682-4.301-3.352-7.071-3.929
		c0,0.798-14.862-6.204-18.716-8.86c-6.079-4.191-5.886-3.444-8.906-6.652c-3.929-3.4-5.131-3.896-9.471-3.896
		c-2.734,0-6.532-0.651-8.439-1.449c-1.907-0.797-3.468-1.161-3.468-0.809c0,0.352-0.608-0.191-1.351-1.208
		c-1.119-1.529-2.163-1.735-6.069-1.2c-6.153,0.844-8.277-1.089-17.829-10.518c-4.228-4.173-8.521-6.816-9.539-6.816
		c-1.789,0-3.62-1.505-5.782-3.345c-2.28-5.123-9.064-4.104-9.881-7.426c-0.47,0-2.257-3.167-2.401-7.979
		c-0.234-7.823-0.515-8.962-2.646-10.75c-2.49-2.09-3.515-6.077-2.133-8.298c0.468-3.686,2.229-4.408,0.631-8.202
		c-0.671-1.254-0.66-2.764,0.032-4.585c0.866-2.277,0.679-3.094-1.158-5.049c-1.205-1.282-2.922-2.564-3.816-2.848
		c-0.894-0.284-2.441-1.897-3.438-3.588c-1.567-2.651-2.315-3.033-5.495-2.805c-4.514,0.326-6.123-0.577-6.127-3.437
		c-0.001-1.205-1.801-4.839-4-8.075c-2.198-3.237-3.997-6.517-3.997-7.285c0-0.771-0.722-2.502-1.604-3.848
		c-1.278-1.95-1.463-3.846-0.911-9.343c0.76-7.562-0.388-11.152-5.212-16.313c-2.146-2.295-2.411-3.284-1.878-7
		c0.341-2.381,0.686-7.343,0.766-11.027c0.092-4.244,0.547-6.626,1.242-6.5c1.628,0.296,0.852-4.126-1.258-7.155
		c-1.012-1.454-2.351-4.151-2.975-5.992s-2.486-4.888-4.139-6.77c-1.651-1.881-3.267-4.648-3.587-6.151
		c-0.321-1.503-1.061-3.856-1.646-5.231c-1.497-3.531-1.895-8.957-0.804-10.995c0.631-1.18,0.471-2.329-0.504-3.617
		c-1.931-2.55-1.848-5.339,0.227-7.631c0.946-1.046,1.81-3.105,1.919-4.579c0.109-1.473,0.235-2.972,0.28-3.33
		c0.044-0.357,1.476-1.139,3.18-1.731c3.22-1.122,6.268-0.224,8.401,2.478c0.55,0.695,2.123,1.41,3.496,1.586
		c2.096,0.271,2.659,1.092,3.511,5.118c0.817,3.868,1.69,5.221,4.504,6.979c1.919,1.2,4.361,2.979,5.428,3.953
		c1.067,0.974,2.397,1.771,2.958,1.771s2.613,1.516,4.562,3.367c3.765,3.579,9.614,6.134,10.556,4.611
		c0.329-0.534,1.519-0.537,2.914-0.006c1.297,0.491,3.255,0.66,4.352,0.374c1.098-0.286,2.297-0.032,2.667,0.564
		c0.832,1.348,4.554,1.444,4.554,0.119c0-0.533,0.572-0.749,1.272-0.48c0.7,0.27,3.481-0.911,6.181-2.622
		c2.698-1.712,5.728-3.271,6.73-3.465c7.129-4.089,14.167-12.334,19.816-19.247c0-0.631,1.385-2.725,3.077-4.651
		c2.174-3.231,4.578-3.976,5.242-10.408c0.898-8.7,4.46-8.518,9.472-17.342c1.182-3.214,0.226-3.172,2.553-5.82
		c2.1-3.554,6.177-5.872,10.812-6.146c1.84-0.109,4.56-0.794,6.045-1.523c1.485-0.729,3.735-1.339,5-1.355
		c1.265-0.018,3.173-0.692,4.241-1.5c1.067-0.809,2.957-1.469,4.2-1.469c1.242,0,2.619-0.589,3.059-1.309
		c1.086-1.777,5.86-3.511,11.3-4.104c2.475-0.27,5.631-0.77,7.012-1.109c2.007-0.496,3.256,0.122,6.207,3.073
		c2.9,3.24,8.136,4.328,12.377,4.447c6.428,0,14.716,2.121,21.851,5.594c2.721,1.323,5.807,2.406,6.858,2.406
		c1.051,0,4.388,2.476,7.412,5.5c4.14,4.14,6.278,5.539,8.642,5.657c6.486,0.104,6.865-1.633,11.592,2.316
		c2.779,1.438,3.161,1.421,4.866-0.207c1.018-0.973,2.488-1.913,3.267-2.092c0.779-0.18,2.317-1.152,3.417-2.163
		c1.101-1.013,4.363-2.604,7.252-3.541c5.48-1.776,13.248-7.701,13.248-10.104c0-0.767,0.427-2.175,0.949-3.13
		c3.568-6.532,7.988-18.438,7.913-21.31c-0.05-1.886,0.411-4.694,1.023-6.242c0.613-1.548,1.114-4.356,1.114-6.241
		c0-1.884,1.15-6.758,2.557-10.83c2.31-6.686,2.509-8.457,2.056-18.259c-0.275-5.97-0.526-11.444-0.557-12.164
		c-1.936-4.409,2.052-6.597-3.547-16.174c-1.581-2.705-2.072-8.204-2.863-24.517c-0.142-2.926-0.029-3,4.521-3
		c2.566,0,4.49,0.175,4.276,0.39c-0.753,0.755,6.579,4.11,8.981,4.11c1.484,0,3.336,1.132,4.754,2.905
		c2.983,3.732,15.046,10.093,19.155,10.101c1.742,0.003,4.456,0.679,6.031,1.5c1.575,0.821,3.661,1.494,4.636,1.494
		s3.061,0.679,4.636,1.509c3.852,2.028,14.391,1.704,21.271-0.655c6.37-2.185,12.087-2.303,17.527-0.364
		c7.248,2.661,4.943,4.336,21.239,4.132c13.589-0.547,6.196-0.651,11.043-0.946c0.563-0.034,3.545,0.55,6.815,1.88
		c4.32,1.755,7.865,2.419,12.957,2.424c12.096,0.014,19.292,0.692,19.922,1.166c1.687,1.269,2.679,1.452,7.243,1.401
		c2.835-0.031,4.29,0.52,4.723,0.653c14.556,4.511,24.544,0.977,28.941,3.16c3.925,1.949,32.017,1.602,35.216-0.11
		c1.081-0.579,2.416-1.099,2.966-1.155c0.55-0.058,2.352-0.517,4-1.021c1.65-0.504,5.612-1.036,8.75-1.566
		c9.343-1.58,7.51-0.902,9.849-2.059c1.818-0.94,4.168-0.921,6.181-0.956c8.646-0.15,16.606-5.228,17.31-5.351
		c8.175-1.424,2.063-1.176,11.412-1.154c7.383,0.016,18-2.417,18-4.125c2.261-1.055,5.141-2.027,7.585-4.071
		c2.011-1.766,4.164-3.286,4.785-3.38c1.058-0.159,11.532-6.304,12.63-7.408c0.275-0.276,0.999-0.595,1.608-0.706
		c5.436-2.1,9.692-4.009,15.688-7.128c3.566-1.855,17.138-4.875,30.981-5.09c7.783-0.121,14.794-0.58,15.579-1.019
		c0.784-0.439,2.272-0.578,3.306-0.309c1.082,0.283,3.589-0.693,5.91-2.303c2.823-1.956,5.665-2.929,9.479-3.245
		c2.997-0.249,5.448-0.807,5.448-1.239c0-1.251,8.373-4.965,11.193-4.965c1.409,0,4.178-0.675,6.151-1.5
		c1.975-0.825,4.895-1.5,6.487-1.5s3.971-0.806,5.282-1.79c1.311-0.984,3.51-2.364,4.885-3.066
		c5.181-2.646,8.718-4.776,11.282-6.794c1.457-1.146,4.389-2.361,6.515-2.701c2.126-0.34,4.677-1.515,5.668-2.61
		c0.991-1.095,2.186-2.013,2.575-1.613c7.742-2.563,8.871-6.358,16.114-9.211c2.462-1.06,5.798-2.18,7.572-2.192
		c2.652-0.018,3.541-0.631,5-3.454c2.302-4.452,15.995-19.353,19.429-21.14c4.003-2.083,5.977-4.438,5.355-6.393
		c-1.584-4.99,4.707-7.729,9.544-4.153c2.975,2.199,4.045,2.193,14.698-0.081c4.033-0.861,5.827-1.875,7.725-4.36
		c2.167-2.842,3.238-3.325,8.745-3.95c3.452-0.392,7.739-1.313,9.526-2.05c1.788-0.736,3.25-1.09,3.25-0.786
		s1.591-0.844,3.535-2.551s4.115-3.104,4.825-3.104s2.382-1.18,3.716-2.621c1.333-1.441,4.288-3.43,6.565-4.418
		c3.555-1.542,4.378-2.504,5.791-6.762c1.87-5.629,3.451-7.333,8.89-9.579c2.102-0.868,2.785-2.217,3.294-2.433
		c1.58-0.671,2.197-1.173,6.472,0.025c4.361,1.223,8.309-0.503,13.039-5.703c3.72-4.088,6.893-5.258,17.545-6.473
		c5.068-0.578,9.641-1.791,12.519-3.321c2.492-1.325,5.447-2.649,6.564-2.941c1.254-0.328,2.29-1.702,2.703-3.584
		c0.691-3.148,0.861-3.191,6.739-1.689c2.38,0.608,2.859,0.296,4.095-2.656c0.771-1.84,2.091-3.92,2.938-4.621
		c3.937-3.265,24.872-6.485,26.374-4.057c0.348,0.563-0.42,2.442-1.702,4.178c-1.75,2.364-2.422,4.783-2.683,9.655
		c-0.189,3.574-0.794,7.669-1.342,9.099c-0.938,2.447-7.269,6.901-9.81,6.901c-6.626,2.01-14.759,6.573-19.884,8.814
		c-2.795,1.222-20.607,8.691-19.707,10.148c0.239,0.389-1.119,1.449-3.021,2.355c-1.901,0.907-3.457,2.106-3.457,2.665
		s-0.396,1.017-0.879,1.017c-0.842,0-6.681,5.044-12.239,10.574c-2.213,2.2-5.521,9.622-5.125,11.49c0.065,0.31-1.702,2.11-3.929,4
		c-2.228,1.89-5.289,4.561-6.807,5.936c-2.745,2.489-5.916,4.231-13.521,7.43c-4.815,2.025-14.368,10.817-17.995,16.563
		c-1.467,2.323-4.035,4.754-5.814,5.504c-1.755,0.739-4.706,2.706-6.561,4.371c-1.854,1.665-4.667,3.312-6.25,3.659
		c-2.31,0.718-3.633,1.942-6.104,2.2c-1.771,0.125-4.358,1.068-5.748,2.096c-1.391,1.028-4.004,2.632-5.81,3.565
		c-2.358,2.482-4.446,3.869-7.415,5.898c-1.93,1.768-3.687,3.266-3.904,3.329c-0.219,0.063-1.961,0.459-3.871,0.879
		c-3.73,0.819-9.142,3.969-12.776,7.437c-1.237,1.181-2.265,1.792-2.281,1.358c-0.018-0.435-0.58-0.075-1.25,0.797
		c-0.671,0.872-3.197,2.897-5.618,4.5c-6.104,4.042-6.379,4.201-8.349,4.81c-0.962,0.297-2.854,3.043-4.208,6.102
		c-2.584,5.842-4.124,7.794-6.566,8.321c-0.813,0.175-3.627,2.65-6.253,5.5c-4.563,4.951-6.427,9.142-9.232,20.763
		c-0.343,1.42-1.706,3.749-3.028,5.176c-2.13,2.297-3.139,2.583-8.79,2.497c-5.081-0.077-7.016,0.354-9.479,2.108
		c-2.937,2.091-3.54,2.15-11.634,1.145l-8.537-1.061l-6.168,3.276c-3.393,1.803-6.52,3.952-6.948,4.777
		c-0.43,0.824-1.778,3.616-2.997,6.202c-1.219,2.587-3.722,6.163-5.563,7.946c-1.841,1.784-3.347,3.668-3.347,4.187
		c0,0.52-1.389,3.201-3.087,5.96c-1.923,3.125-2.92,5.89-2.645,7.33c-0.134,2.173-1.182,2.944-1.27,5.656
		c0,2.421-0.621,6.463-1.38,8.984c-1.373,4.563-1.094,8.149,1.199,15.42c3.174,10.063,19.355,37.271,21.578,35.738
		c-0.225,0.408-0.109,2.129-0.397,3.096c3.676,5.651,7.586,9.741,12.142,14.647c4.699,5.063,5.402,5.614,8.575,8.731
		c1.437,1.41,3.536,3.616,4.776,4.463c-0.232,0.789,5.521,7.371,9.928,11.974c3.466,3.618,10.303,12.28,11.643,14.747
		c0.721,1.329,1.374,4.441,1.449,6.917c0.095,3.031,0.981,5.725,2.721,8.251c1.558,2.266,2.372,4.546,2.056,5.756
		c-0.565,2.162,1.4,5.305,2.785,4.448c0.465-0.288,1.722,0.024,2.792,0.692c1.527,0.954,1.757,1.717,1.064,3.534
		c-0.629,1.68,0.075,2.38-0.895,3.773c-0.664,0.801-0.964,1.852-0.666,2.333c0.298,0.482-0.001,0.896-0.664,0.917
		c-0.663,0.021-1.851,0.209-2.64,0.417c-0.813,0.213-2.055-0.87-2.863-2.497c-0.787-1.581-1.718-2.436-2.067-1.897
		c-2.394,1.138-4.628,1.687-8.668-1.558c-0.826-0.664-6.563-5.156-9.222-5.823c-1.332-0.334-4.36-0.661-6.73-0.729
		c-2.368-0.064-4.11-0.443-3.87-0.84c-8.487-4.16-17.655-3.79-26.646-1.521c-1.925,0.856-3.725,1.546-4,1.531
		c-0.274-0.015-2.075,0.631-4,1.437c-1.925,0.805-3.725,1.49-4,1.524c-2.677,0.337-6.157,3.201-8.021,6.602
		c-3.18,5.796-4.958,7.644-7.384,7.67c-1.151,0.012-3.22,0.901-4.595,1.978c-3.465,2.71-5.041,2.505-10.703-1.39
		c-6.735-4.634-14.68-8.561-18.07-8.932c-1.55-0.17-3.245-0.566-3.771-0.884c-2.26-1.36-14.518-3.98-21.046-4.499
		c-9.271-0.733-22.052-0.539-23.844,1.253c-5.666,0.564-11.452,4.552-16.437,8.955c-1.721,1.96-3.131,4.111-3.132,4.78
		c-0.001,0.668-1.413,3.892-3.138,7.164c-2.974,5.639-3.074,6.192-1.943,10.604c0.657,2.562,0.886,5.959,0.51,7.552
		c1.489,4.622,0.458,6.446-2.915,15.395c-2.136,8.761-3.462,12.215-5.569,14.5c-1.521,1.649-3.856,4.87-4.963,7.267
		c-2.263,4.896-1.071,3.875-3.395,7.751c-0.932,3.714-4.197,4.563-9.054,2.357c-5.651-2.567-9.136-2.326-16.196,1.118
		c-4.751,2.318-6.319,3.766-7.378,6.25c-2.193,5.146-3.026,4.385-5.672,6.782c-3.097,3.026-10.557,6.913-13.347,6.952
		c-0.859,0.013-3.527,0.972-5.931,2.132c-2.4,1.161-7.948,3.15-12.327,4.425c-6.695,1.946-8.689,3.054-12.552,6.97
		c-3.743,3.797-5.107,4.579-7.402,4.242c-1.549-0.227-3.052-0.031-3.34,0.436c-0.287,0.468-1.956,1.505-3.706,2.307
		s-4.307,2.37-5.682,3.484c-3.427,2.78-12.601,6.204-17.784,6.637c-2.355,0.196-5.224,0.859-6.371,1.475
		c-1.295,0.693-4.119,0.863-7.439,0.448c-5.284-0.66-5.41-0.614-9.814,3.6c-2.453,2.349-4.296,4.536-4.095,4.861
		c0.202,0.326-1.035,0.699-2.748,0.83s-3.533,0.453-4.584,0.43c-2.561-0.057-0.246,0.719-3.401,0.194
		c-2.188-0.363-18.872-2.695-28.262-2.604c-16.563,0.163-18.96,0.288-19.939,1.04c-0.583,0.446-4.92,1.996-9.64,3.443
		c-9.4,2.883-22.046,8.428-25.832,11.326c-2.287,1.751-4.564,3.966-11.15,10.847c-3.395,3.547-7.159,11.67-6.855,14.793
		c0.118,1.214-0.133,3.014-0.558,3.999c-1.32,3.066,0.042,11.662,2.304,14.532c4.659,5.913,8.26,13.643,7.964,17.099
		C211.612,857.679,210.836,857.88,205.5,855.18z"/>
	<rect id="rect3742" x="-194.286" y="172.362" fill="none" width="1140" height="740"/>
</g>
</svg>
